<svg width="115" height="32" viewBox="0 0 115 32" fill="none" xmlns="http://www.w3.org/2000/svg">
<path d="M16 18.6667C17.4727 18.6667 18.6666 17.4728 18.6666 16C18.6666 14.5272 17.4727 13.3333 16 13.3333C14.5272 13.3333 13.3333 14.5272 13.3333 16C13.3333 17.4728 14.5272 18.6667 16 18.6667Z" stroke="white" stroke-width="2.66667" stroke-linecap="round" stroke-linejoin="round"/>
<path d="M6.66666 6.53333C5.41695 7.77284 4.42503 9.24752 3.74811 10.8723C3.0712 12.4971 2.72269 14.2398 2.72269 16C2.72269 17.7602 3.0712 19.5029 3.74811 21.1277C4.42503 22.7525 5.41695 24.2272 6.66666 25.4667M10.4 10.2667C9.63395 11.0121 9.02506 11.9036 8.6093 12.8883C8.19353 13.873 7.97932 14.9311 7.97932 16C7.97932 17.0689 8.19353 18.127 8.6093 19.1117C9.02506 20.0964 9.63395 20.9879 10.4 21.7333M21.6 21.7333C22.366 20.9879 22.9749 20.0964 23.3907 19.1117C23.8065 18.127 24.0207 17.0689 24.0207 16C24.0207 14.9311 23.8065 13.873 23.3907 12.8883C22.9749 11.9036 22.366 11.0121 21.6 10.2667M25.3333 25.4667C26.583 24.2272 27.575 22.7525 28.2519 21.1277C28.9288 19.5029 29.2773 17.7602 29.2773 16C29.2773 14.2398 28.9288 12.4971 28.2519 10.8723C27.575 9.24752 26.583 7.77284 25.3333 6.53333" stroke="white" stroke-width="2.66667" stroke-linecap="round" stroke-linejoin="round"/>
<path d="M50.28 24C50.104 24 49.96 23.944 49.848 23.832C49.736 23.72 49.68 23.576 49.68 23.4V7.8C49.68 7.624 49.736 7.48 49.848 7.368C49.96 7.256 50.104 7.2 50.28 7.2H53.448C53.608 7.2 53.744 7.256 53.856 7.368C53.984 7.48 54.048 7.624 54.048 7.8V20.376H61.296C61.472 20.376 61.616 20.44 61.728 20.568C61.856 20.68 61.92 20.824 61.92 21V23.4C61.92 23.576 61.856 23.72 61.728 23.832C61.616 23.944 61.472 24 61.296 24H50.28ZM70.9168 24.24C69.4448 24.24 68.1648 24 67.0768 23.52C65.9888 23.04 65.1408 22.32 64.5328 21.36C63.9248 20.384 63.5888 19.168 63.5248 17.712C63.5088 17.024 63.5008 16.336 63.5008 15.648C63.5008 14.96 63.5088 14.264 63.5248 13.56C63.5888 12.12 63.9248 10.912 64.5328 9.936C65.1568 8.944 66.0128 8.2 67.1008 7.704C68.1888 7.208 69.4608 6.96 70.9168 6.96C72.3568 6.96 73.6208 7.208 74.7088 7.704C75.8128 8.2 76.6768 8.944 77.3008 9.936C77.9248 10.912 78.2608 12.12 78.3088 13.56C78.3408 14.264 78.3568 14.96 78.3568 15.648C78.3568 16.336 78.3408 17.024 78.3088 17.712C78.2448 19.168 77.9088 20.384 77.3008 21.36C76.6928 22.32 75.8448 23.04 74.7568 23.52C73.6688 24 72.3888 24.24 70.9168 24.24ZM70.9168 20.784C71.7648 20.784 72.4528 20.528 72.9808 20.016C73.5248 19.504 73.8128 18.688 73.8448 17.568C73.8768 16.864 73.8928 16.2 73.8928 15.576C73.8928 14.952 73.8768 14.304 73.8448 13.632C73.8128 12.88 73.6688 12.272 73.4128 11.808C73.1728 11.328 72.8368 10.976 72.4048 10.752C71.9728 10.528 71.4768 10.416 70.9168 10.416C70.3728 10.416 69.8848 10.528 69.4528 10.752C69.0208 10.976 68.6768 11.328 68.4208 11.808C68.1648 12.272 68.0208 12.88 67.9888 13.632C67.9728 14.304 67.9648 14.952 67.9648 15.576C67.9648 16.2 67.9728 16.864 67.9888 17.568C68.0368 18.688 68.3248 19.504 68.8528 20.016C69.3808 20.528 70.0688 20.784 70.9168 20.784ZM88.3148 24.24C86.7947 24.24 85.4827 23.992 84.3787 23.496C83.2907 22.984 82.4427 22.248 81.8347 21.288C81.2427 20.312 80.9147 19.128 80.8507 17.736C80.8347 17.048 80.8267 16.32 80.8267 15.552C80.8267 14.768 80.8347 14.024 80.8507 13.32C80.9147 11.96 81.2507 10.808 81.8587 9.864C82.4667 8.92 83.3227 8.2 84.4267 7.704C85.5307 7.208 86.8267 6.96 88.3148 6.96C89.5148 6.96 90.5787 7.112 91.5067 7.416C92.4347 7.704 93.2108 8.096 93.8348 8.592C94.4748 9.088 94.9548 9.632 95.2748 10.224C95.6108 10.816 95.7867 11.4 95.8027 11.976C95.8188 12.12 95.7708 12.24 95.6588 12.336C95.5628 12.432 95.4428 12.48 95.2988 12.48H91.7947C91.6188 12.48 91.4828 12.456 91.3867 12.408C91.3068 12.344 91.2348 12.256 91.1707 12.144C91.0587 11.904 90.8907 11.656 90.6667 11.4C90.4588 11.128 90.1628 10.896 89.7787 10.704C89.4107 10.512 88.9227 10.416 88.3148 10.416C87.4028 10.416 86.6827 10.656 86.1548 11.136C85.6428 11.616 85.3627 12.384 85.3147 13.44C85.2667 14.816 85.2667 16.208 85.3147 17.616C85.3627 18.736 85.6588 19.544 86.2028 20.04C86.7467 20.536 87.4667 20.784 88.3628 20.784C88.9708 20.784 89.5068 20.68 89.9708 20.472C90.4508 20.264 90.8268 19.944 91.0988 19.512C91.3707 19.064 91.5067 18.496 91.5067 17.808V17.352H89.2508C89.0748 17.352 88.9227 17.296 88.7947 17.184C88.6827 17.056 88.6267 16.904 88.6267 16.728V14.952C88.6267 14.776 88.6827 14.632 88.7947 14.52C88.9227 14.392 89.0748 14.328 89.2508 14.328H95.2988C95.4748 14.328 95.6188 14.392 95.7308 14.52C95.8428 14.632 95.8987 14.776 95.8987 14.952V17.688C95.8987 19.064 95.5868 20.24 94.9628 21.216C94.3387 22.192 93.4507 22.944 92.2988 23.472C91.1628 23.984 89.8348 24.24 88.3148 24.24ZM105.756 24.24C104.284 24.24 103.004 24 101.916 23.52C100.828 23.04 99.9802 22.32 99.3722 21.36C98.7642 20.384 98.4282 19.168 98.3642 17.712C98.3482 17.024 98.3402 16.336 98.3402 15.648C98.3402 14.96 98.3482 14.264 98.3642 13.56C98.4282 12.12 98.7642 10.912 99.3722 9.936C99.9962 8.944 100.852 8.2 101.94 7.704C103.028 7.208 104.3 6.96 105.756 6.96C107.196 6.96 108.46 7.208 109.548 7.704C110.652 8.2 111.516 8.944 112.14 9.936C112.764 10.912 113.1 12.12 113.148 13.56C113.18 14.264 113.196 14.96 113.196 15.648C113.196 16.336 113.18 17.024 113.148 17.712C113.084 19.168 112.748 20.384 112.14 21.36C111.532 22.32 110.684 23.04 109.596 23.52C108.508 24 107.228 24.24 105.756 24.24ZM105.756 20.784C106.604 20.784 107.292 20.528 107.82 20.016C108.364 19.504 108.652 18.688 108.684 17.568C108.716 16.864 108.732 16.2 108.732 15.576C108.732 14.952 108.716 14.304 108.684 13.632C108.652 12.88 108.508 12.272 108.252 11.808C108.012 11.328 107.676 10.976 107.244 10.752C106.812 10.528 106.316 10.416 105.756 10.416C105.212 10.416 104.724 10.528 104.292 10.752C103.86 10.976 103.516 11.328 103.26 11.808C103.004 12.272 102.86 12.88 102.828 13.632C102.812 14.304 102.804 14.952 102.804 15.576C102.804 16.2 102.812 16.864 102.828 17.568C102.876 18.688 103.164 19.504 103.692 20.016C104.22 20.528 104.908 20.784 105.756 20.784Z" fill="white"/>
</svg>
